<svg version="1.1" id="Layer_1" xmlns="http://www.w3.org/2000/svg" xmlns:xlink="http://www.w3.org/1999/xlink" x="0px" y="0px"
	 width="100%" viewBox="0 0 1024 544" enable-background="new 0 0 1024 544" xml:space="preserve">
<path fill="#000000" opacity="1.000000" stroke="none" 
	d="
M616.405823,277.876678 
	C617.535034,296.650909 616.660034,314.983307 616.922974,333.305084 
	C617.008362,339.258240 622.916809,342.498169 628.242249,339.525574 
	C630.504028,338.263062 629.843079,336.024323 629.849365,334.144836 
	C629.922546,312.313568 629.944580,290.482086 629.933594,268.650635 
	C629.922302,246.318954 629.977356,223.985947 629.720886,201.656769 
	C629.668701,197.116531 631.094910,195.250809 635.592590,195.308411 
	C641.252930,195.380905 646.917725,195.202805 652.579163,195.072708 
	C657.457642,194.960617 659.172852,197.201309 659.155884,202.117844 
	C659.006592,245.447281 659.053711,288.777405 659.049988,332.107300 
	C659.049316,340.169617 659.064087,340.153229 667.043762,340.016602 
	C669.875061,339.968109 672.721436,339.847565 675.537598,340.063416 
	C681.577515,340.526428 685.262329,344.194244 685.204956,349.419830 
	C685.143250,355.042694 680.878601,359.249054 674.896057,359.366547 
	C663.069885,359.598785 651.241882,359.867096 639.414429,359.879059 
	C591.097717,359.927795 542.780701,359.944519 494.464081,359.855194 
	C463.973785,359.798828 433.483124,359.614777 402.993958,359.342773 
	C360.814270,358.966431 327.832092,324.290985 329.807800,282.179962 
	C330.433105,268.851318 334.381592,256.365845 341.551086,244.946747 
	C343.455322,241.913849 345.034180,241.774796 347.918884,243.626419 
	C359.703705,251.190796 359.753998,251.112427 354.233612,264.013031 
	C340.353363,296.449921 360.003937,333.247162 394.770630,339.305450 
	C401.918915,340.551086 409.334351,340.776581 416.686401,340.072571 
	C419.642517,339.789520 420.761963,338.393860 420.699341,335.552856 
	C420.618622,331.888611 420.764252,328.219604 420.697113,324.554749 
	C420.647430,321.843964 421.803223,320.605072 424.556580,320.622070 
	C431.389008,320.664276 438.223785,320.686371 445.053955,320.541901 
	C447.945190,320.480774 448.923340,321.872742 448.933289,324.460358 
	C448.946716,327.959961 449.101624,331.464172 448.969330,334.957825 
	C448.835083,338.503448 450.130524,340.365692 453.890625,339.993164 
	C454.716797,339.911346 455.565460,339.874084 456.387543,339.964233 
	C461.062439,340.476685 462.942871,338.652008 462.773804,333.741699 
	C462.458618,324.586639 462.854340,315.408630 462.625916,306.248352 
	C462.520660,302.026520 464.169037,300.658691 468.205231,300.805908 
	C473.863068,301.012329 479.550415,301.062592 485.197113,300.718933 
	C489.982910,300.427582 491.270477,302.537933 491.161163,306.916382 
	C490.936554,315.910522 490.993042,324.913239 491.034973,333.911926 
	C491.062408,339.799774 491.296539,339.663055 498.473633,339.955963 
	C503.136383,340.146240 504.031372,338.096130 504.000580,333.993256 
	C503.829071,311.162689 503.868195,288.330597 503.821106,265.499023 
	C503.808594,259.444489 504.085388,259.339264 509.929321,259.454681 
	C515.749634,259.569672 521.583801,259.351715 527.402222,259.075317 
	C531.679993,258.872131 533.242249,260.556519 533.216064,264.927917 
	C533.079346,287.758636 533.159912,310.590973 533.263733,333.422333 
	C533.273499,335.570984 532.134521,338.637604 535.109924,339.531769 
	C538.099609,340.430206 541.473572,340.545166 544.432800,339.267609 
	C546.448120,338.397614 545.767090,336.042969 545.773193,334.291443 
	C545.821228,320.459808 545.751648,306.627747 545.819885,292.796295 
	C545.851501,286.392212 546.231506,286.105743 552.698059,286.012390 
	C558.030396,285.935364 563.377197,286.115143 568.691833,285.776764 
	C573.462158,285.473083 575.193054,287.218903 575.093628,292.065216 
	C574.782593,307.223511 574.827087,322.389099 574.751648,337.551941 
	C574.749207,338.033142 574.941223,338.515320 575.079834,339.174072 
	C578.227722,340.578888 581.577576,339.880676 584.831909,339.789368 
	C588.377380,339.689880 587.821594,336.827423 587.824890,334.585754 
	C587.849060,317.920929 587.819031,301.256012 587.808838,284.591125 
	C587.801575,272.758850 587.765381,260.926453 587.807556,249.094345 
	C587.829346,243.000916 588.170959,242.739243 594.450378,242.750519 
	C599.949951,242.760391 605.458862,242.965637 610.946289,242.711105 
	C615.607239,242.494919 617.144470,244.527206 616.989624,248.948822 
	C616.657654,258.433197 616.582336,267.926575 616.405823,277.876678 
z"/>
<path fill="#000000" opacity="1.000000" stroke="none" 
	d="
M546.027283,220.982712 
	C558.491272,230.430374 556.912292,230.518768 567.134949,218.885208 
	C585.386841,198.114288 603.166931,176.929062 621.175537,155.943787 
	C623.885376,152.786026 626.742493,149.753326 629.570129,146.698502 
	C632.117493,143.946472 631.944702,141.420822 629.118713,138.991562 
	C626.592407,136.819901 624.067993,134.643814 621.604797,132.401611 
	C619.238342,130.247467 619.373962,128.342407 622.536255,127.245415 
	C638.573792,121.681992 654.626648,116.162628 670.687744,110.667610 
	C674.095032,109.501846 675.844177,110.446716 675.172607,114.403046 
	C672.388123,130.806412 669.684570,147.223602 666.856201,163.619293 
	C666.559692,165.337814 666.708740,167.354416 664.566650,168.991592 
	C660.572266,167.333511 657.523438,164.009689 654.498108,160.907639 
	C651.195740,157.521484 649.272339,157.403793 645.928101,161.288162 
	C624.192932,186.533539 602.187012,211.546387 580.154907,236.534164 
	C578.008301,238.968704 577.061829,241.239700 577.218689,244.535980 
	C577.711426,254.893280 571.130371,262.448822 560.905823,263.794159 
	C552.296753,264.926910 543.212891,258.687225 541.250671,249.660995 
	C540.447327,245.965164 538.743225,243.334106 536.095825,240.912491 
	C531.548645,236.753098 527.147278,232.434708 522.658691,228.210678 
	C520.138489,225.839066 517.908691,225.819412 515.463684,228.635651 
	C496.903168,250.014938 478.175629,271.249817 459.708160,292.708771 
	C456.405762,296.546143 453.103912,298.578674 447.831818,298.403900 
	C436.345215,298.023041 424.835876,298.385193 413.338379,298.240997 
	C409.923065,298.198151 407.475464,299.122101 405.104492,301.776276 
	C397.723602,310.038544 384.706146,310.371460 376.861908,302.827454 
	C368.171387,294.469635 368.233734,280.733582 376.999725,272.461548 
	C384.446991,265.433960 398.365875,266.124908 405.436676,274.078247 
	C407.180817,276.040131 408.985046,276.789490 411.487427,276.769958 
	C421.152832,276.694458 430.820953,276.621124 440.484131,276.781830 
	C443.821716,276.837311 446.057556,275.580688 448.190033,273.124176 
	C464.134552,254.757278 480.210602,236.504654 496.172150,218.152451 
	C498.654114,215.298752 500.506134,212.398010 500.337921,207.966049 
	C499.963989,198.113571 508.270508,189.940445 517.829773,189.742371 
	C528.178040,189.527939 535.567444,196.264420 536.175293,206.824661 
	C536.561523,213.534027 542.052246,216.468735 546.027283,220.982712 
M391.181488,279.537720 
	C386.182037,279.443817 383.336914,282.319946 382.635376,286.824738 
	C382.015625,290.804230 384.126099,294.002319 388.034576,295.284363 
	C391.985291,296.580322 395.218567,294.964600 397.402161,291.561157 
	C400.406189,286.878784 398.433472,282.771118 391.181488,279.537720 
M516.994446,201.621841 
	C513.377930,202.662018 511.898621,205.108368 512.427612,208.761337 
	C512.820496,211.474548 514.361206,213.330048 517.054688,213.995865 
	C520.059082,214.738510 522.263733,213.232635 523.810547,210.921814 
	C526.609863,206.739929 523.956665,202.724686 516.994446,201.621841 
M560.095947,251.755081 
	C565.316101,249.296906 567.006226,244.967331 563.780640,241.899292 
	C561.709595,239.929474 559.238892,238.395340 556.211609,240.131760 
	C553.716064,241.563141 552.262390,243.735992 552.673462,246.663269 
	C553.200684,250.418030 555.718811,251.905548 560.095947,251.755081 
z"/>
<path fill="#000000" opacity="1.000000" stroke="none" 
	d="
M433.836304,103.491333 
	C440.233643,100.541794 446.543579,101.162788 451.262817,105.068893 
	C459.681030,112.036697 467.729279,110.213776 476.259857,106.210350 
	C477.610474,105.576508 479.046295,105.108162 480.470947,104.651337 
	C484.221344,103.448700 487.040436,104.667084 488.794464,108.142731 
	C491.870117,114.237152 495.035248,120.295502 497.842041,126.513809 
	C500.417114,132.218842 499.467316,135.954422 493.924316,138.592026 
	C484.991119,142.842804 481.279999,148.699265 484.169891,158.772598 
	C487.433228,170.147797 483.912079,179.918915 476.827454,189.473068 
	C463.340485,207.661453 450.965179,226.670670 437.959137,245.220474 
	C430.825745,255.394485 421.630127,257.291168 411.165710,250.639694 
	C403.018311,245.460999 395.197968,239.763214 387.297577,234.203369 
	C384.943207,232.546509 382.901306,231.215729 380.357910,233.958801 
	C378.369995,236.102829 376.096100,235.273071 374.033051,233.849350 
	C368.686493,230.159637 363.273071,226.557373 358.060608,222.685593 
	C353.625488,219.391174 353.320160,217.140442 356.516998,212.610184 
	C367.465851,197.094498 378.430450,181.588959 389.531525,166.182236 
	C392.996796,161.372940 394.252136,156.518112 392.245880,150.757599 
	C389.859039,143.904449 391.559692,137.996399 397.146332,133.247772 
	C409.049957,123.129723 419.781189,111.573730 433.836304,103.491333 
M424.821106,238.392960 
	C428.086395,236.832321 430.399750,234.234192 432.388214,231.324020 
	C439.985962,220.204636 447.619202,209.108551 455.104523,197.913742 
	C458.813507,192.366684 458.566589,185.520279 454.839355,180.620529 
	C445.658722,168.551834 427.632935,168.283081 418.667084,180.329880 
	C409.736755,192.328949 401.173248,204.600525 392.380402,216.702835 
	C390.605713,219.145462 390.355255,221.011566 393.161469,222.881058 
	C400.216125,227.580811 407.125183,232.500458 414.211609,237.150604 
	C417.185120,239.101852 420.511871,240.233322 424.821106,238.392960 
z"/>
<path fill="#000000" opacity="1.000000" stroke="none" 
	d="
M558.321228,129.944138 
	C567.013000,127.536575 574.534912,129.525696 581.481140,134.147903 
	C583.744873,135.654266 586.911194,137.315308 583.995117,140.745773 
	C581.708130,143.436111 580.044800,147.861221 574.935364,144.439041 
	C570.287598,141.326065 565.071167,140.552185 559.684387,142.459000 
	C558.139221,143.005981 556.316101,143.822891 556.600647,145.855164 
	C556.914307,148.094559 559.002136,147.752686 560.605347,147.854111 
	C563.094116,148.011566 565.594238,148.005783 568.079468,148.199280 
	C570.583862,148.394257 571.345154,150.013474 571.331787,152.339996 
	C571.318054,154.712494 569.944275,155.617386 567.904114,155.752899 
	C565.417236,155.918060 562.913574,155.826965 560.426208,155.987640 
	C558.893860,156.086639 557.049255,155.377289 555.948792,157.340164 
	C557.608032,159.499100 559.994568,158.209396 561.948242,158.725281 
	C565.292053,159.608215 571.267273,156.190155 571.198364,162.797943 
	C571.132019,169.161972 565.426575,165.573685 562.238159,166.305267 
	C560.203735,166.772095 557.890808,165.988739 556.103455,167.662521 
	C558.067383,172.200851 564.723694,174.307404 570.516785,172.121002 
	C572.051941,171.541580 573.647949,170.773026 574.828125,169.674606 
	C577.442139,167.241684 579.396851,167.461487 581.994690,169.960800 
	C587.003235,174.779282 587.056885,176.116440 581.251526,179.957687 
	C567.668518,188.945175 550.871277,185.467621 541.997498,171.842712 
	C540.922852,170.192657 540.167969,168.318390 538.226562,167.322601 
	C531.475647,163.859970 531.287903,163.120056 535.300964,157.095703 
	C535.289978,155.528076 533.377747,155.271881 533.083801,153.944870 
	C532.614746,151.827179 531.901428,148.762207 534.547791,148.434799 
	C539.090881,147.872726 540.255249,144.475830 542.208801,141.537460 
	C546.034729,135.782822 551.064636,131.666733 558.321228,129.944138 
z"/>
<path fill="#000000" opacity="1.000000" stroke="none" 
	d="
M518.749512,102.821320 
	C520.233887,102.393654 521.415466,102.171425 522.405151,101.610542 
	C526.760681,99.142281 527.026489,96.380714 523.129089,92.824356 
	C524.858276,91.029739 526.275879,89.312294 528.562195,92.392563 
	C530.317627,94.757698 533.290771,95.046112 535.845825,94.909630 
	C548.836243,94.215706 561.765076,95.072495 574.711914,95.858047 
	C579.306824,96.136848 583.514282,95.369316 586.298035,90.719421 
	C588.149719,87.626343 591.694336,88.767685 594.559021,89.208679 
	C597.155640,89.608414 598.441345,91.666641 598.803894,94.160995 
	C599.338867,97.841492 598.785400,101.516617 597.897705,105.040474 
	C596.915771,108.938873 593.473206,109.151283 590.215881,108.980431 
	C577.266113,108.301193 564.297668,107.805511 551.383301,106.694168 
	C544.356384,106.089478 537.936646,106.794579 531.641541,110.164139 
	C522.142883,115.248436 512.427795,119.928352 502.613373,124.876572 
	C498.820343,119.768333 497.254700,113.924599 494.610352,108.632484 
	C493.728088,106.866783 494.958740,105.800362 496.428619,105.135406 
	C498.678680,104.117508 500.976135,103.204399 503.610077,102.096878 
	C505.593781,108.513596 509.304474,106.930908 513.189819,104.529747 
	C514.772095,103.551842 516.479980,102.939011 518.749512,102.821320 
z"/>
<path fill="#000000" opacity="1.000000" stroke="none" 
	d="
M352.797821,225.394592 
	C358.679291,229.131973 364.216339,232.788467 369.773956,236.413437 
	C372.127289,237.948425 373.709473,239.880890 371.740692,242.552567 
	C369.640869,245.402023 368.554779,250.515930 363.451141,248.613846 
	C356.975494,246.200363 352.040039,241.325470 347.137207,236.594070 
	C345.942169,235.440811 345.864899,233.856705 346.659698,232.431641 
	C348.169250,229.725113 349.392517,226.751022 352.797821,225.394592 
z"/>
<path fill="#000000" opacity="1.000000" stroke="none" 
	d="
M424.227631,220.294220 
	C423.027496,223.749619 422.976105,226.893417 423.360321,230.067139 
	C423.570190,231.800568 423.640533,233.472733 421.631958,234.249557 
	C419.566223,235.048523 417.641479,234.823181 416.236267,232.988098 
	C413.924194,229.968765 412.451385,226.581772 413.516815,222.743896 
	C416.811096,210.877182 420.253479,198.991028 425.210999,187.746597 
	C430.248352,176.320953 443.248322,174.450134 450.789642,183.422882 
	C449.773529,185.771210 447.392609,185.841370 445.423370,186.326172 
	C437.969238,188.161301 433.242981,192.607422 431.016693,200.024109 
	C429.008606,206.714035 426.569366,213.274521 424.227631,220.294220 
z"/>
</svg>